<?xml version="1.0" encoding="utf-8"?>
<!-- Generator: Adobe Illustrator 14.0.0, SVG Export Plug-In . SVG Version: 6.00 Build 43363)  -->
<!DOCTYPE svg PUBLIC "-//W3C//DTD SVG 1.1//EN" "http://www.w3.org/Graphics/SVG/1.1/DTD/svg11.dtd">
<svg version="1.1" id="Layer_1" xmlns="http://www.w3.org/2000/svg" xmlns:xlink="http://www.w3.org/1999/xlink" x="0px" y="0px"
	 width="500px" height="500px" viewBox="0 0 500 500" enable-background="new 0 0 500 500" xml:space="preserve">
<g>
	<path fill="#FFFFFF" d="M385.1,114.9v43.7l30-38.3V84.9H26V474h389.1V228.8l-30,38.3V444H56V114.9H385.1z"/>
	<line fill="#FFFFFF" x1="385.1" y1="173.6" x2="384.6" y2="174.1"/>
	<line fill="#FFFFFF" x1="416" y1="134.1" x2="415.1" y2="135.3"/>
</g>
<g>
	<path fill="#FFFFFF" d="M457.2,157.6v-76L229.8,371.5l-35-43.8c6.5-1.9,12.9-4.5,19-7.5c12.8-6.2,23-14.5,30.6-25
		c7.6-10.3,11.4-23.9,11.4-40.6c0-11.9-2.3-21.6-6.9-29.2c-4.7-7.8-10.9-14.1-18.7-19c-7.8-4.8-16.1-8-25.2-9.4
		c-9-1.6-19.6-2.4-31.8-2.4H84.7v218h55.1v-74.2l56.8,74.2h65.8l-0.1-0.2h0.8L457.2,157.6z M139.8,293.1v-58.6h18.6
		c6.3,0,11.5,0.2,15.8,0.6c4.2,0.3,8,1.3,11.6,2.7c5,2.2,8.5,5.2,10.5,9.1c2.2,4,3.3,8.8,3.3,14.3c0,6-0.9,10.9-2.7,14.7
		c-1.7,3.9-4.2,7.1-7.9,9.9c-3.7,3-8.3,5-13.8,6c-5.3,0.8-11.9,1.3-19.6,1.3H139.8z"/>
</g>
</svg>
